<?xml version="1.0" encoding="UTF-8"?>
<svg xmlns="http://www.w3.org/2000/svg" viewBox="0 0 83.82 70.56">
  <defs>
    <style>
      .cls-1 {
        fill: #fff;
        stroke-width: 0px;
      }
    </style>
  </defs>
  <g>
    <path class="cls-1" d="m78.27.41L3.91,29.1c-1.54.62-2.78,1.23-3.39,2.16-.62.93-.62,1.54-.31,2.16.31.62,1.23,1.23,2.78,1.54l19.13,5.86,44.12-27.77c1.23-.93,2.16-.93,2.78-.62.31.31.31.62-.31,1.23l-35.79,32.71-1.54,19.75c1.23,0,2.47-.62,4.01-1.85l9.26-8.95,19.13,14.19c4.01,2.16,6.17.93,7.1-3.39l12.65-59.55c.62-2.47.31-4.32-.93-5.55-1.23-1.23-2.47-1.23-4.32-.62Z"/>
  </g>
</svg>
